<svg xmlns="http://www.w3.org/2000/svg" xmlns:xlink="http://www.w3.org/1999/xlink" viewBox="0 0 429.22 145.33"><defs><style>.cls-1{fill:#fff;}.cls-2{fill:#2a451d;}.cls-3{fill:#283d19;}.cls-4{fill:url(#linear-gradient);}.cls-5{fill:#357e32;}.cls-6{fill:url(#linear-gradient-2);}.cls-7{fill:url(#linear-gradient-3);}.cls-8{fill:none;}.cls-9{fill:#c24815;}.cls-10{fill:url(#linear-gradient-4);}.cls-11{fill:#bb66a5;}.cls-12{fill:#bf3316;}.cls-13{fill:#a21a17;}.cls-14{fill:#afca0b;}.cls-15{fill:#159a34;}.cls-16{fill:url(#linear-gradient-5);}.cls-17{fill:#13a538;}.cls-18{fill:#dc6413;}.cls-19{fill:#ef7d00;}.cls-20{fill:#c94d1b;}.cls-21{fill:#954b97;}.cls-22{fill:url(#linear-gradient-6);}.cls-23{fill:#931813;}</style><linearGradient id="linear-gradient" x1="350.61" y1="60.92" x2="352.83" y2="53.16" gradientUnits="userSpaceOnUse"><stop offset="0" stop-color="#76b82a"></stop><stop offset="0.31" stop-color="#73b72a"></stop><stop offset="0.49" stop-color="#6bb52b"></stop><stop offset="0.65" stop-color="#5db02d"></stop><stop offset="0.78" stop-color="#49aa2f"></stop><stop offset="0.91" stop-color="#2fa231"></stop><stop offset="1" stop-color="#159a34"></stop></linearGradient><linearGradient id="linear-gradient-2" x1="368.12" y1="58.06" x2="368.12" y2="23.83" gradientUnits="userSpaceOnUse"><stop offset="0" stop-color="#2f461f"></stop><stop offset="0.6" stop-color="#2d431d"></stop><stop offset="0.91" stop-color="#283d19"></stop></linearGradient><linearGradient id="linear-gradient-3" x1="365.32" y1="69.26" x2="367.79" y2="57.66" gradientUnits="userSpaceOnUse"><stop offset="0" stop-color="#38612a"></stop><stop offset="0.59" stop-color="#375f29"></stop><stop offset="0.8" stop-color="#355826"></stop><stop offset="0.95" stop-color="#314d22"></stop><stop offset="1" stop-color="#2f461f"></stop></linearGradient><linearGradient id="linear-gradient-4" x1="389.58" y1="62.32" x2="391.93" y2="53.55" gradientUnits="userSpaceOnUse"><stop offset="0" stop-color="#dc6413"></stop><stop offset="0.53" stop-color="#da6213"></stop><stop offset="0.72" stop-color="#d45b14"></stop><stop offset="0.85" stop-color="#c95014"></stop><stop offset="0.91" stop-color="#c24815"></stop></linearGradient><linearGradient id="linear-gradient-5" x1="370.82" y1="44.41" x2="370.82" y2="26.18" gradientUnits="userSpaceOnUse"><stop offset="0" stop-color="#38612a"></stop><stop offset="0.42" stop-color="#375e29"></stop><stop offset="0.68" stop-color="#345626"></stop><stop offset="0.89" stop-color="#304820"></stop><stop offset="0.91" stop-color="#2f461f"></stop></linearGradient><linearGradient id="linear-gradient-6" x1="400.87" y1="60.12" x2="402.05" y2="56" gradientUnits="userSpaceOnUse"><stop offset="0" stop-color="#a91b18"></stop><stop offset="0.46" stop-color="#a71b18"></stop><stop offset="0.62" stop-color="#a01a16"></stop><stop offset="0.74" stop-color="#951813"></stop><stop offset="0.75" stop-color="#931813"></stop></linearGradient></defs><g id="Livello_2" data-name="Livello 2"><g id="Livello_1-2" data-name="Livello 1"><path class="cls-1" d="M12.57,110.26l12-13.68a1.89,1.89,0,0,1,1.4-.73h7.5a.64.64,0,0,1,.73.73v5.74a.64.64,0,0,1-.73.73H28.68a1,1,0,0,0-.81.44l-5,5.67,8.53,14.48a1,1,0,0,0,.73.44h3.53a.66.66,0,0,1,.74.74v5.73a.66.66,0,0,1-.74.74H27.5a1.32,1.32,0,0,1-1.17-.74l-8.9-15.29-4.86,5.51v2.87c0,.3.15.44.45.44h3.16a.65.65,0,0,1,.73.74v5.73a.65.65,0,0,1-.73.74H.74a.66.66,0,0,1-.74-.74v-5.73a.66.66,0,0,1,.74-.74H3.9a.39.39,0,0,0,.44-.44V88.93a.39.39,0,0,0-.44-.44H.74A.65.65,0,0,1,0,87.76V82a.65.65,0,0,1,.74-.73h11.1a.64.64,0,0,1,.73.73Z"></path><path class="cls-1" d="M52.5,123.64a.39.39,0,0,0,.44.44H56.1a.66.66,0,0,1,.74.74v5.73a.66.66,0,0,1-.74.74H40.66a.65.65,0,0,1-.73-.74v-5.73a.65.65,0,0,1,.73-.74h3.16c.3,0,.45-.14.45-.44V103.49a.39.39,0,0,0-.45-.44H40.66a.64.64,0,0,1-.73-.73V96.58a.64.64,0,0,1,.73-.73H51.77a.64.64,0,0,1,.73.73Zm0-35.22a.65.65,0,0,1-.73.74H45a.65.65,0,0,1-.73-.74V82a.64.64,0,0,1,.73-.73h6.77a.64.64,0,0,1,.73.73Z"></path><path class="cls-1" d="M87.43,96.44v6.39a.66.66,0,0,1-.88.74,29.19,29.19,0,0,0-4.34-.59c-2.65,0-4.63.73-6,2.21s-2,3.77-2,6.91v11.54a.38.38,0,0,0,.44.44h3.45a.66.66,0,0,1,.74.74v5.73a.66.66,0,0,1-.74.74H62.43a.66.66,0,0,1-.74-.74v-5.73a.66.66,0,0,1,.74-.74h3.16a.39.39,0,0,0,.44-.44V103.49a.39.39,0,0,0-.44-.44H62.43a.65.65,0,0,1-.74-.73V96.58a.65.65,0,0,1,.74-.73h11.1a.65.65,0,0,1,.74.73v3.68h.07a10.24,10.24,0,0,1,3.49-3.53,10.06,10.06,0,0,1,5.41-1.4,15.27,15.27,0,0,1,3.45.37C87.18,95.8,87.43,96,87.43,96.44Z"></path><path class="cls-1" d="M120.74,104.82a20.73,20.73,0,0,1,.91,4.26,58.34,58.34,0,0,1,.26,6.4c0,.49-.27.74-.81.74H99.26a.39.39,0,0,0-.44.44,8.68,8.68,0,0,0,3.46,6.69,8.7,8.7,0,0,0,5,1.39,10.69,10.69,0,0,0,8.31-3.38c.39-.39.76-.44,1.1-.14L121,125a.67.67,0,0,1,.07,1,16.25,16.25,0,0,1-6.1,4.41,21.13,21.13,0,0,1-8.46,1.62,16.45,16.45,0,0,1-9.44-2.61,13.33,13.33,0,0,1-5.34-7.25,28.37,28.37,0,0,1-1.25-8.67,29,29,0,0,1,1.18-8.75A13.19,13.19,0,0,1,97,97.61a17.67,17.67,0,0,1,18.42,0A13.4,13.4,0,0,1,120.74,104.82Zm-21.48,1.76a9.65,9.65,0,0,0-.44,3,.39.39,0,0,0,.44.44h13.9a.39.39,0,0,0,.44-.44,9.37,9.37,0,0,0-.44-3,6.41,6.41,0,0,0-2.57-3.34,7.7,7.7,0,0,0-4.34-1.22,7.79,7.79,0,0,0-4.41,1.22A6.37,6.37,0,0,0,99.26,106.58Z"></path><path class="cls-1" d="M160.88,102.32a.64.64,0,0,1-.73.73h-1.91a.58.58,0,0,0-.59.44L146,133.5a36.46,36.46,0,0,1-3.27,6.61,9.86,9.86,0,0,1-3.61,3.39,11.1,11.1,0,0,1-5,1h-2.28a.65.65,0,0,1-.74-.73v-5.88a.66.66,0,0,1,.74-.74h1.32a5,5,0,0,0,3.27-1,7.27,7.27,0,0,0,2-3.2l1-3-11-26.55a.53.53,0,0,0-.51-.37h-2a.64.64,0,0,1-.73-.73V96.58a.64.64,0,0,1,.73-.73h13.75a.65.65,0,0,1,.74.73v5.74a.65.65,0,0,1-.74.73h-2.35c-.34,0-.47.17-.37.52l6.33,16.69h.14l6.25-16.69a.39.39,0,0,0,0-.37.4.4,0,0,0-.33-.15h-2.36a.64.64,0,0,1-.73-.73V96.58a.64.64,0,0,1,.73-.73h13.24a.64.64,0,0,1,.73.73Z"></path><path class="cls-1" d="M204.19,99.23V96.58a.65.65,0,0,1,.74-.73H216a.65.65,0,0,1,.74.73v5.74a.65.65,0,0,1-.74.73h-3.16a.39.39,0,0,0-.44.44v25.59q0,7.72-4.23,12t-12.32,4.26a19.3,19.3,0,0,1-7.31-1.43A13.46,13.46,0,0,1,183,140a.71.71,0,0,1-.23-.52.82.82,0,0,1,.3-.51l4.34-4.34a1.54,1.54,0,0,1,.59-.29.84.84,0,0,1,.51.29,10.89,10.89,0,0,0,7.72,3.31q8,0,7.94-8.46v-3.3h-.07q-2.66,4.11-9.19,4.11a12.72,12.72,0,0,1-7.58-2.2,12.39,12.39,0,0,1-4.48-6.4,20.91,20.91,0,0,1-.92-4,41.54,41.54,0,0,1-.26-5,39.49,39.49,0,0,1,.26-4.93,23,23,0,0,1,.92-4.05,12.38,12.38,0,0,1,4.48-6.47,12.72,12.72,0,0,1,7.58-2.2q6.54,0,9.19,4.19ZM190,112.69a17.16,17.16,0,0,0,.81,5.8,6.61,6.61,0,0,0,12.57,0,17.16,17.16,0,0,0,.81-5.8,18,18,0,0,0-.81-5.81,6.64,6.64,0,0,0-12.57,0A18,18,0,0,0,190,112.69Z"></path><path class="cls-1" d="M247.65,96.44v6.39a.66.66,0,0,1-.88.74,29.19,29.19,0,0,0-4.34-.59c-2.65,0-4.63.73-6,2.21s-2,3.77-2,6.91v11.54a.38.38,0,0,0,.44.44h3.45a.66.66,0,0,1,.74.74v5.73a.66.66,0,0,1-.74.74H222.65a.66.66,0,0,1-.74-.74v-5.73a.66.66,0,0,1,.74-.74h3.16a.39.39,0,0,0,.44-.44V103.49a.39.39,0,0,0-.44-.44h-3.16a.65.65,0,0,1-.74-.73V96.58a.65.65,0,0,1,.74-.73h11.1a.65.65,0,0,1,.74.73v3.68h.07a10.24,10.24,0,0,1,3.49-3.53,10.06,10.06,0,0,1,5.41-1.4,15.27,15.27,0,0,1,3.45.37C247.4,95.8,247.65,96,247.65,96.44Z"></path><path class="cls-1" d="M281.1,104.82a25.79,25.79,0,0,1,.89,3.89,40.78,40.78,0,0,1,0,9.71,26.2,26.2,0,0,1-.89,3.9,13.09,13.09,0,0,1-5.33,7.2,16.21,16.21,0,0,1-9.23,2.58,16.38,16.38,0,0,1-9.3-2.58,13.14,13.14,0,0,1-5.33-7.2,27.48,27.48,0,0,1-.88-3.9,39.44,39.44,0,0,1,0-9.71,27,27,0,0,1,.88-3.89,13.19,13.19,0,0,1,5.33-7.21,16.45,16.45,0,0,1,9.3-2.57,16.29,16.29,0,0,1,9.23,2.57A13.15,13.15,0,0,1,281.1,104.82ZM259.85,107a14.71,14.71,0,0,0-.59,2.8c-.09.93-.14,2.18-.14,3.75s.05,2.83.14,3.78a13.15,13.15,0,0,0,.59,2.76,7.13,7.13,0,0,0,2.5,3.42,7,7,0,0,0,4.19,1.21,6.88,6.88,0,0,0,4.12-1.21,7.06,7.06,0,0,0,2.5-3.42,12.55,12.55,0,0,0,.59-2.76,37.77,37.77,0,0,0,.15-3.78,36.83,36.83,0,0,0-.15-3.75,14,14,0,0,0-.59-2.8,6.7,6.7,0,0,0-2.42-3.42,7.09,7.09,0,0,0-4.2-1.21,7.22,7.22,0,0,0-4.22,1.21A6.55,6.55,0,0,0,259.85,107Z"></path><path class="cls-1" d="M321,123.64a.38.38,0,0,0,.44.44h3.16a.66.66,0,0,1,.74.74v5.73a.66.66,0,0,1-.74.74h-11.1a.66.66,0,0,1-.74-.74V128h-.07a10.93,10.93,0,0,1-9.12,4.12,11.26,11.26,0,0,1-8.86-3.68,13.73,13.73,0,0,1-3.27-9.48V103.49a.39.39,0,0,0-.44-.44h-3.17a.64.64,0,0,1-.73-.73V96.58a.64.64,0,0,1,.73-.73H298.9a.64.64,0,0,1,.73.73V117a8.8,8.8,0,0,0,1.66,5.63,6.67,6.67,0,0,0,9.7,0,8.47,8.47,0,0,0,1.73-5.55V103.49a.39.39,0,0,0-.44-.44H309a.64.64,0,0,1-.73-.73V96.58a.64.64,0,0,1,.73-.73h11.18a.65.65,0,0,1,.74.73Z"></path><path class="cls-1" d="M364.78,103.57a26.92,26.92,0,0,1,1,4.3,56.16,56.16,0,0,1,0,11.4,27.16,27.16,0,0,1-1,4.3,12,12,0,0,1-4.56,6.36,13.37,13.37,0,0,1-7.72,2.17q-6.47,0-9.41-4.19H343v9a.39.39,0,0,0,.45.44h3.16a.64.64,0,0,1,.73.73v5.74a.64.64,0,0,1-.73.73H331.18a.65.65,0,0,1-.74-.73v-5.74a.65.65,0,0,1,.74-.73h3.16a.39.39,0,0,0,.44-.44V103.49a.39.39,0,0,0-.44-.44h-3.16a.65.65,0,0,1-.74-.73V96.58a.65.65,0,0,1,.74-.73h11.1a.64.64,0,0,1,.73.73v2.65h.08Q346,95,352.5,95a13.29,13.29,0,0,1,7.72,2.17A12,12,0,0,1,364.78,103.57Zm-21,3.38a22.76,22.76,0,0,0-.74,6.62,22.76,22.76,0,0,0,.74,6.62,6.47,6.47,0,0,0,2.43,3.38,7.16,7.16,0,0,0,4.19,1.17,7,7,0,0,0,4.15-1.17,6.52,6.52,0,0,0,2.39-3.38,22.76,22.76,0,0,0,.74-6.62,22.76,22.76,0,0,0-.74-6.62,6.48,6.48,0,0,0-2.39-3.38,7,7,0,0,0-4.15-1.18,7.1,7.1,0,0,0-4.19,1.18A6.43,6.43,0,0,0,343.75,107Z"></path><path class="cls-2" d="M380.89,21.17l-8.55,1.35V25.7l5.42,1.51a1.41,1.41,0,0,1,.88-.42l3.53-.45A37.56,37.56,0,0,0,380.89,21.17Z"></path><path class="cls-3" d="M372.34,22.52l-7.12,1a1.5,1.5,0,0,0-.75.3l7.87,1.87Z"></path><path class="cls-4" d="M357.91,54.83a1.64,1.64,0,0,1-.81.3l-18.53,3v3.77a1.39,1.39,0,0,0,1.52,1.39l23.81-3.87V56.28Z"></path><path class="cls-5" d="M377.33,28.74V56.36a49,49,0,0,0,5.5-22,43.6,43.6,0,0,0-.66-8l-3.53.45a1.53,1.53,0,0,0-.87.4,1.31,1.31,0,0,0-.19.27A2.79,2.79,0,0,0,377.33,28.74Z"></path><path class="cls-6" d="M364.15,24.2a1.79,1.79,0,0,0-.13.32,3.26,3.26,0,0,0-.12,1v30.8l8,1.78a1.33,1.33,0,0,0,.44-1.12V25.7l-7.87-1.87A1.14,1.14,0,0,0,364.15,24.2Z"></path><path class="cls-7" d="M370.71,58.44a2,2,0,0,0,1.18-.38l-8-1.78V59.4l6.82-1Z"></path><path class="cls-8" d="M396.27,34.41c-.58-1.25-1.75-1-2.2,0L383.48,59.12c-.47,1.11.18,1.94,1.39,1.75l20.37-3.23a1.26,1.26,0,0,0,.81-.48,1.53,1.53,0,0,0,.05-1.59Z"></path><path class="cls-8" d="M394.07,34.44,383.48,59.12c-.47,1.11.18,1.94,1.39,1.75l12-1.9,5.19-12.1-5.79-12.46C395.69,33.16,394.52,33.38,394.07,34.44Z"></path><path class="cls-9" d="M396.27,34.4c-.58-1.25-1.75-1-2.2,0l-4.65,10.84,3.27,7a1.53,1.53,0,0,1-.06,1.58l5.81,1.41,3.62-8.43Z"></path><path class="cls-10" d="M392.63,53.89a1.27,1.27,0,0,1-.81.49l-6.77,1.07-1.57,3.66c-.47,1.11.17,2,1.37,1.77l12-1.91,1.57-3.67Z"></path><path class="cls-11" d="M407.08,67.43a1,1,0,0,1-.82-1.12l-2.3.36Z"></path><path class="cls-12" d="M411.7,38.55l-4.62-1.12a1.21,1.21,0,0,0-1.34.86l-3.68,8.58,4,8.7a1.53,1.53,0,0,1-.05,1.59,1.26,1.26,0,0,1-.81.48L396.87,59l-1.72,4c-.37.85-.06,1.54.65,1.72l8.16,2,2.3-.36a1.93,1.93,0,0,1,.15-.62l5.29-12.34Z"></path><path class="cls-13" d="M406.41,65.69a1.93,1.93,0,0,0-.15.62h0l4.17-.67a1.64,1.64,0,0,0,.8-.31,1.42,1.42,0,0,0,.47-1.1V53.35Z"></path><path class="cls-14" d="M338.57,61.91V21.39c0-1.27.43-1.81,1.32-1.95l19-3,12-1.91a1.23,1.23,0,0,1,1.41,1.36l0,6.58,8.55-1.35c-4-12.38-13.78-20-25.34-18.11-15.27,2.48-27.79,20.54-28,40.33s12,33.82,27.31,31.34a26.89,26.89,0,0,0,13.31-6.57L365,67.39A1.42,1.42,0,0,1,363.89,66V59.4l-23.77,3.86A1.38,1.38,0,0,1,338.57,61.91Z"></path><path class="cls-15" d="M372.34,22.52l0-6.58A1.22,1.22,0,0,0,371,14.58l-12.56,2v37a1.55,1.55,0,0,1-.48,1.31l6,1.45V25.48a3.26,3.26,0,0,1,.12-1,1.79,1.79,0,0,1,.13-.32,1.14,1.14,0,0,1,.32-.37,1.5,1.5,0,0,1,.75-.3Z"></path><path class="cls-16" d="M377.33,28.76a3,3,0,0,1,.22-1.25,1.25,1.25,0,0,1,.21-.3l-5.42-1.51V57a1.36,1.36,0,0,1-.44,1.08l-.28.17a4.1,4.1,0,0,1-.55.16l-7.17,1V66a1.42,1.42,0,0,0,1.1,1.35l3.21.78a40.58,40.58,0,0,0,9.13-11.8Z"></path><path class="cls-17" d="M327.58,43.39c.18-19.79,12.7-37.85,28-40.33a20.64,20.64,0,0,1,8.09.25l.14,0c-7-1.67-13.74-4.33-20.94-3-26.4,5-36.56,50.29-16.52,66.93,5.4,4.48,13.12,5.54,19.9,7C335.25,71.41,327.43,59.25,327.58,43.39Z"></path><path class="cls-18" d="M378.26,70.59a1.48,1.48,0,0,1-.94-1.3V56.36a40.58,40.58,0,0,1-9.13,11.8l10.18,2.47h0A.38.38,0,0,1,378.26,70.59Z"></path><path class="cls-19" d="M410.76,21.9a1.09,1.09,0,0,0-.44,0l-28.15,4.45a44.82,44.82,0,0,1,.66,8.08,48.94,48.94,0,0,1-5.5,21.94V69.29a1.48,1.48,0,0,0,.94,1.3,1.12,1.12,0,0,0,.61,0l25.09-4-8.16-2c-.71-.18-1-.87-.65-1.72l1.72-4-12,1.9c-1.21.19-1.86-.64-1.39-1.75l5.94-13.84h0l4.65-10.84c.45-1.06,1.62-1.28,2.2,0l5.79,12.47,3.68-8.58a1.21,1.21,0,0,1,1.34-.86l4.62,1.12,0-15.31A1.24,1.24,0,0,0,410.76,21.9Z"></path><path class="cls-20" d="M410.32,21.89h.09a1,1,0,0,1,.35,0l.08,0c-1.35-.4-13.48-3.27-13.48-3.27a1.24,1.24,0,0,0-.47,0l-16,2.54a37.56,37.56,0,0,1,1.28,5.17Z"></path><path class="cls-21" d="M429,62.14,419.19,41c-.58-1.24-1.74-1-2.19,0l-5.3,12.33V64.23a1.46,1.46,0,0,1-.47,1.11,1.76,1.76,0,0,1-.83.29l-4.14.68h0a1,1,0,0,0,.8,1.11,1.61,1.61,0,0,0,.73,0l20.38-3.23a1.22,1.22,0,0,0,.81-.48A1.53,1.53,0,0,0,429,62.14Z"></path><path class="cls-11" d="M417,41a1.21,1.21,0,0,1,1.33-.86h0l-6.63-1.61v14.8Z"></path><path class="cls-22" d="M398.44,55.3,396.87,59l8.37-1.33a1.26,1.26,0,0,0,.81-.48h0Z"></path><path class="cls-23" d="M406.1,55.57l-4-8.7-3.62,8.43,7.61,1.85A1.54,1.54,0,0,0,406.1,55.57Z"></path></g></g></svg>